<?xml version="1.0" encoding="utf-8"?>
<svg
  version="1.1"
  id="Wok"
  xmlns:dc="http://purl.org/dc/elements/1.1/"
  xmlns:cc="http://creativecommons.org/ns#"
  xmlns:rdf="http://www.w3.org/1999/02/22-rdf-syntax-ns#"
  xmlns:svg="http://www.w3.org/2000/svg"
  xmlns="http://www.w3.org/2000/svg"
  xmlns:xlink="http://www.w3.org/1999/xlink"
  x="0px"
  y="0px"
  viewBox="0 0 500 500"
  style="enable-background:new 0 0 500 500;"
  xml:space="preserve">
  <title id="title">Ginger S390x</title>
  <metadata id="license">
    <rdf:RDF>
      <cc:Work rdf:about="">
        <dc:format>image/svg+xml</dc:format>
        <dc:type rdf:resource="http://purl.org/dc/dcmitype/StillImage"/>
        <dc:title>Ginger</dc:title>
        <cc:license rdf:resource="http://www.apache.org/licenses/LICENSE-2.0"/>
        <dc:date>2016</dc:date>
        <dc:creator>
          <cc:Agent>
            <dc:title>IBM, Corp.</dc:title>
          </cc:Agent>
        </dc:creator>
        <dc:rights>
          <cc:Agent>
            <dc:title>IBM, Corp.</dc:title>
          </cc:Agent>
        </dc:rights>
        <dc:publisher>
          <cc:Agent>
            <dc:title>IBM, Corp.</dc:title>
          </cc:Agent>
        </dc:publisher>
        <dc:contributor>
          <cc:Agent>
            <dc:title>https://github.com/kimchi-project/gingers390x</dc:title>
          </cc:Agent>
        </dc:contributor>
        <dc:description>Ginger S390x is an open source IBM z Systems IO management plugin for Wok, Webserver Originated from Kimchi, that provides an intuitive web panel with common tools for configuring and managing the Linux systems.</dc:description>
      </cc:Work>
    </rdf:RDF>
  </metadata>
  <style type="text/css">
    .st1 {
      fill: #0044aa;
    }
  </style>
  <g>
    <path
      class="st1"
        d="m 344.51985,53.336093 c -0.0636,-0.0024 -0.14459,0.01294 -0.23155,0.03618 -0.008,0.0022 -0.0127,0.0019 -0.0209,0.0043 -0.0126,0.0036 -0.0306,0.01077 -0.0436,0.0149 -0.0661,0.02104 -0.14099,0.05381 -0.21826,0.08726 -0.33992,0.108364 -0.90948,0.470762 -1.61143,0.979064 -0.0194,0.01385 -0.0411,0.0306 -0.0607,0.04469 -0.20714,0.151049 -0.40139,0.284077 -0.63393,0.463991 -0.15072,0.115249 -0.31247,0.243847 -0.47261,0.370341 -0.16174,0.126364 -0.3272,0.259461 -0.49728,0.395883 -0.28709,0.229867 -0.58903,0.477848 -0.89777,0.734298 -0.2104,0.175063 -0.41641,0.347766 -0.63583,0.534227 -0.39447,0.334611 -0.80438,0.692143 -1.22423,1.059942 -0.12419,0.10899 -0.24397,0.211878 -0.37011,0.323517 -1.08566,0.959113 -2.25234,2.035242 -3.43732,3.147901 -0.13869,0.130475 -0.26483,0.242597 -0.40427,0.374598 -5.39997,5.101995 -11.29617,11.274183 -13.97703,15.032871 -1.03107,1.445594 -2.11686,3.141338 -3.21335,4.933633 -0.12476,0.203389 -0.2484,0.398518 -0.3739,0.606593 -0.11503,0.190312 -0.22992,0.372081 -0.34545,0.566153 -0.40031,0.672413 -0.79804,1.371655 -1.19955,2.075191 -0.15726,0.27759 -0.31409,0.549403 -0.4726,0.834327 -1.55242,2.763744 -3.0835,5.694414 -4.52679,8.675353 -0.17412,0.359353 -0.35841,0.715022 -0.52954,1.074844 -0.31375,0.660077 -0.60126,1.314498 -0.90346,1.973028 -0.23189,0.497553 -0.45532,0.99247 -0.68139,1.489871 -0.11012,0.246738 -0.23163,0.496997 -0.33975,0.74281 -0.0323,0.07334 -0.059,0.141731 -0.091,0.214971 -0.002,0.004 -0.004,0.0105 -0.006,0.0149 -0.0112,0.0251 -0.0231,0.0494 -0.0341,0.0745 -0.50439,1.0973 -0.97927,2.13962 -1.40075,3.09044 -0.38785,0.83289 -1.17109,2.53835 -1.27167,2.74137 -0.0359,0.0724 -0.0787,0.19065 -0.11577,0.27031 l -0.0436,0 -0.13096,0.40014 c -0.0618,0.14388 -0.1192,0.26743 -0.1841,0.42994 -0.48894,1.11919 -1.16498,3.21817 -2.0157,6.24897 -0.59864,1.99161 -1.21644,4.23748 -1.93218,7.05564 -0.0476,0.18677 -0.10606,0.42449 -0.15564,0.62149 -0.6503,2.28 -1.34288,4.74749 -2.15996,7.71119 -1.44953,5.25771 -2.8153,9.8307 -3.32532,11.17835 -0.0394,0.0944 -0.0714,0.15908 -0.1063,0.23625 -0.0613,0.0304 -0.12562,0.0312 -0.1936,0.017 -0.0781,-0.0464 -0.16463,-0.11419 -0.27521,-0.21709 -0.0394,-0.0367 -0.10046,-0.13435 -0.15184,-0.20433 -0.98619,-1.74522 -3.28173,-7.89641 -8.11784,-21.63304 -0.354,-1.07188 -0.8259,-2.51934 -1.11033,-3.37138 -0.69756,-2.1295 -1.68864,-5.15603 -1.97774,-5.98931 -0.01,-0.0288 -0.13383,-0.4169 -0.14046,-0.43632 -0.0197,-0.0577 -0.0537,-0.13037 -0.0759,-0.19156 -0.0857,-0.23818 -0.20997,-0.59772 -0.27141,-0.75345 l -0.36633,-1.10251 -0.10628,0 c -0.0454,-0.10135 -0.26876,-0.66122 -0.35683,-0.87264 -0.009,-0.0215 -0.0402,-0.10136 -0.0494,-0.12345 -0.002,-0.004 -0.006,-0.0144 -0.008,-0.0192 -0.24413,-0.63773 -0.57767,-1.49705 -0.85032,-2.19225 -0.006,-0.0157 -0.0185,-0.0506 -0.0247,-0.066 -0.70919,-1.76528 -2.43142,-6.16396 -3.94788,-10.029006 -1.56778,-4.090905 -3.00938,-7.757738 -4.25726,-10.82929 -0.23331,-0.58665 -0.52445,-1.353467 -0.74213,-1.892148 -0.30081,-0.764452 -0.73859,-1.889576 -0.99076,-2.524284 -0.23772,-0.604991 -0.50848,-1.295156 -0.70417,-1.783599 -0.0989,-0.252253 -0.2218,-0.5762 -0.31128,-0.800272 -0.35566,-1.561434 -1.85008,-4.521865 -2.02329,-3.805579 -0.0321,0.132469 -0.0575,0.294459 -0.0816,0.457604 -0.34015,0.427047 -0.33866,1.69752 -0.0247,3.456524 0.0449,0.388514 0.0984,0.719097 0.17651,0.887539 0.13867,0.63777 0.30254,1.311044 0.50866,2.028365 0.0438,0.152313 0.10886,0.452972 0.15754,0.636386 0.15352,0.782216 0.32358,1.610102 0.51817,2.505127 0.0408,0.187566 0.0759,0.358285 0.11387,0.536359 0.10551,0.603858 0.20073,1.153991 0.32077,1.826164 0.5309,3.11925 1.1405,6.60086 1.81261,10.273784 1.67752,9.167226 3.21926,18.313296 3.42782,20.324066 l 0.1993,1.92195 c 0.017,0.25711 0.0388,0.53699 0.0398,0.72152 4e-5,0.0159 9.7e-4,0.0334 0.002,0.0511 -0.0452,0.3532 -0.13815,0.56531 -0.279,0.65342 -0.33575,-0.0381 -1.20684,-0.33421 -2.4029,-0.80453 -1.35574,-0.5564 -3.58086,-1.53975 -5.55741,-2.4732 -0.16948,-0.08 -0.27755,-0.11784 -0.43654,-0.19156 -0.012,-0.005 -0.024,-0.0132 -0.0361,-0.0191 -0.1789,-0.0938 -0.37202,-0.20073 -0.54472,-0.28734 -0.0192,-0.01 -0.0359,-0.0138 -0.055,-0.0234 -0.55155,-0.27509 -1.07849,-0.52122 -1.57916,-0.72791 -0.21071,-0.0872 -0.4055,-0.14536 -0.60927,-0.22136 -0.21343,-0.0818 -0.42858,-0.16107 -0.63583,-0.23199 -0.0948,-0.031 -0.19471,-0.0714 -0.2885,-0.10004 -0.0365,-0.0112 -0.0717,-0.0189 -0.10819,-0.0298 -0.0247,-0.008 -0.0494,-0.0117 -0.074,-0.0192 -0.005,-0.002 -0.01,-0.003 -0.0152,-0.004 l -0.63774,-0.28521 -0.4783,0.002 c -0.10578,-0.0239 -0.21327,-0.0587 -0.31887,-0.0809 l 0.12907,-0.10004 -0.37392,0 c -0.67692,0 -1.23794,-0.1202 -1.70821,-0.30861 -0.1447,0.0159 -0.31542,0.0253 -0.52955,0.0319 0.0117,0.002 0.0225,0.007 0.0342,0.009 0.0172,0.003 0.0341,0.009 0.0512,0.0128 -0.0385,-0.004 -0.0707,-0.0148 -0.11008,-0.0192 -0.0261,7.4e-4 -0.0353,0.003 -0.0627,0.004 -0.12179,0.003 -0.2227,-0.0214 -0.33025,-0.0383 -0.10169,0.009 -0.20293,0.0182 -0.33026,0.0404 -0.12652,0.01 -0.25664,0.0242 -0.39478,0.0426 -0.0632,0.005 -0.14256,0.005 -0.1974,0.0149 -0.01,0.002 -0.0241,0.005 -0.0342,0.006 -0.0764,0.007 -0.16346,0.004 -0.23725,0.0128 -0.0613,0.008 -0.15486,0.0366 -0.22017,0.0468 -0.0782,0.011 -0.16173,0.0317 -0.24105,0.0447 -0.14912,0.0237 -0.29733,0.0506 -0.44414,0.0809 -0.008,0.001 -0.0151,0.002 -0.0227,0.004 -0.0603,0.0122 -0.11726,0.0186 -0.17842,0.0319 -0.0354,0.008 -0.0743,0.0175 -0.11008,0.0255 -0.12826,0.0232 -0.27579,0.0568 -0.40618,0.0872 -0.0217,0.004 -0.0428,0.008 -0.0645,0.0128 -0.68078,0.14264 -1.43944,0.38688 -2.30989,0.72153 -0.66971,0.21346 -1.47432,0.56666 -2.37252,1.00247 -0.0938,0.0422 -0.17334,0.0755 -0.26953,0.1192 -0.37389,0.16127 -0.7602,0.32127 -1.11793,0.48315 -2.4217,1.09055 -4.38766,2.15857 -5.91992,3.19472 -0.0388,0.0258 -0.0777,0.0529 -0.11579,0.0787 -0.005,0.003 -0.0119,0.007 -0.0171,0.0106 l -0.002,0.002 c -0.006,0.003 -0.01,0.005 -0.0152,0.009 -0.12114,0.0821 -0.25686,0.16556 -0.37201,0.24689 -0.008,0.005 -0.0171,0.0118 -0.0247,0.017 -0.0766,0.0542 -0.14443,0.10791 -0.21827,0.16176 -0.0424,0.0302 -0.0823,0.0594 -0.12338,0.0894 -0.10982,0.0793 -0.25709,0.16803 -0.35683,0.24476 -0.0738,0.0568 -0.12636,0.10837 -0.1955,0.16389 -0.0223,0.017 -0.054,0.0363 -0.0759,0.0532 -0.0937,0.0566 -0.0884,0.0518 -0.18601,0.11067 -0.0618,0.0373 -0.17246,0.1616 -0.29989,0.31288 -0.16533,0.15025 -0.32779,0.31969 -0.47071,0.48741 -0.18345,0.1939 -0.32607,0.3787 -0.46311,0.56403 -0.0155,0.0217 -0.0383,0.0445 -0.0532,0.066 -0.003,0.004 -0.007,0.0106 -0.01,0.0149 -0.0493,0.0696 -0.12084,0.14246 -0.16323,0.2107 -0.004,0.007 -0.009,0.0209 -0.0133,0.0277 -0.003,0.005 -0.01,0.01 -0.0133,0.0149 -0.028,0.045 -0.0693,0.14084 -0.0987,0.19156 -0.003,0.005 -0.006,0.0134 -0.01,0.0192 -8.8e-4,0.001 -0.005,0.002 -0.006,0.004 -0.004,0.007 -0.01,0.019 -0.0133,0.0255 -0.0338,0.0592 -0.0713,0.13548 -0.1063,0.20006 -0.0329,0.0593 -0.0671,0.12439 -0.10059,0.18731 -0.0137,0.0247 -0.0281,0.0536 -0.0418,0.0787 -0.0639,0.12519 -0.12036,0.21393 -0.18791,0.35545 l -0.11008,0.0532 c -0.0286,0.14031 -0.0702,0.2768 -0.1044,0.41503 -0.0196,0.0431 -0.0427,0.0983 -0.0627,0.14261 -0.0781,0.17001 -0.15318,0.30105 -0.23345,0.48741 -0.25019,0.58082 -0.55839,1.38914 -0.89018,2.29441 -0.41757,1.11233 -0.90921,2.55239 -1.40833,4.02267 -0.44476,1.30768 -0.91652,2.73363 -1.42162,4.30575 -0.0967,0.30252 -0.17999,0.54282 -0.27901,0.85561 -0.14519,0.45598 -0.32382,1.06218 -0.4764,1.55161 -0.39937,1.26181 -0.81398,2.64671 -1.22612,3.99713 -0.21003,0.69349 -0.39683,1.28141 -0.60926,1.98579 -0.0634,0.21119 -0.1125,0.36251 -0.17652,0.5768 -0.1053,0.35228 -0.20117,0.67869 -0.298,1.01099 -0.23678,0.79745 -0.46674,1.56458 -0.70416,2.37742 -0.40547,1.35007 -0.80086,2.6548 -1.24509,4.18869 -1.94884,6.72887 -3.55438,12.56897 -4.87033,17.62313 -0.003,0.013 -0.006,0.0255 -0.01,0.0383 -1.46839,5.64179 -2.54642,10.219 -3.15072,13.44509 -0.16675,0.88007 -0.29231,1.64433 -0.37771,2.27951 -0.18773,1.31248 -0.26459,2.30168 -0.19739,2.86695 0.009,0.0864 0.014,0.17803 0.0285,0.2469 9.7e-4,0.004 0.003,0.0125 0.004,0.017 2.9e-4,0.001 -2.9e-4,0.003 0,0.004 0.006,0.0235 0.0105,0.051 0.0171,0.0724 0.0155,0.0544 0.0349,0.10037 0.055,0.14048 7.8e-4,0.001 9.3e-4,0.002 0.002,0.004 0.004,0.007 0.008,0.0129 0.0114,0.0192 0.019,0.0331 0.038,0.0678 0.0607,0.0894 0.006,0.008 0.0115,0.0107 0.0171,0.017 0.004,0.004 0.008,0.011 0.0114,0.0149 0.0404,0.0922 0.0918,0.1395 0.15563,0.14048 0.0869,0.0545 0.20064,0.0206 0.35113,-0.12771 0.0557,-0.0549 0.18824,-0.31369 0.35114,-0.65767 0.0552,-0.0874 0.121,-0.20234 0.1917,-0.33203 0.005,-0.009 0.0125,-0.0254 0.0171,-0.0341 0.19991,-0.33942 0.41801,-0.74993 0.66051,-1.26639 0.034,-0.0724 0.43021,-1.01149 0.52196,-1.2217 0.0343,-0.0761 0.0617,-0.13002 0.0968,-0.20859 0.0309,-0.0692 0.21875,-0.51051 0.26003,-0.60446 0.0666,-0.15056 0.17178,-0.3978 0.24294,-0.55977 0.10915,-0.25011 0.29309,-0.68349 0.41377,-0.96203 0.13454,-0.30867 0.34749,-0.80945 0.49728,-1.15573 0.78815,-1.81067 2.32473,-5.45064 3.56638,-8.37099 1.27103,-2.83772 2.59881,-5.80688 3.87956,-8.72856 1.77211,-4.0426 3.35503,-7.59412 4.84944,-10.91442 0.22116,-0.49315 0.53,-1.18604 0.74023,-1.65377 4.3393,-9.59201 7.34698,-15.75404 8.78973,-18.02115 0.20855,-0.27973 0.40778,-0.53025 0.60167,-0.73642 0.25223,-0.26819 0.46065,-0.47503 0.64913,-0.63852 0.21253,-0.14626 0.42641,-0.27815 0.62634,-0.36396 0.47918,-0.10603 1.04786,0.0122 2.02329,0.32352 0.24333,0.0777 0.52026,0.1909 0.79907,0.30436 1.79085,0.83375 4.29054,2.2577 6.93916,3.95669 0.003,0.002 0.006,0.006 0.01,0.009 0.29683,0.19046 0.59708,0.39566 0.89586,0.5917 2.84237,1.93953 5.92868,4.26095 8.83529,6.65125 0.65003,0.53456 1.28594,1.07312 1.9132,1.61119 0.3592,0.31327 0.72433,0.62641 1.07239,0.93863 1.72286,1.54544 3.29738,3.07064 4.6084,4.48879 4.85112,5.24754 6.35295,8.29091 7.80655,15.82464 0.0737,0.38184 0.15147,0.88073 0.22776,1.33237 0.15272,0.91714 0.30176,1.90177 0.44983,2.94358 0.5749,4.09856 1.18733,9.68541 1.77086,15.80761 0.9941,10.94903 1.99232,25.08981 2.43516,34.46728 0.0287,0.8249 0.0734,1.74319 0.093,2.51152 0.0318,1.24802 0.0449,2.06928 0.0627,2.98187 0.003,0.87939 -0.007,1.65677 -0.0303,2.3157 -0.11317,3.1013 0.13004,3.41249 -1.71202,8.34971 -0.12567,0.33107 -0.2585,0.67872 -0.40048,1.0493 -5.68994,14.09416 -9.92158,24.65593 -13.31461,33.52014 -1.87593,4.7723 -3.51193,9.04895 -4.93106,12.96408 -3.11115,8.49492 -5.11219,14.93276 -7.32067,22.95051 -0.10931,0.39419 -0.22071,0.80059 -0.33026,1.20042 -0.26305,0.9545 -0.53042,1.93011 -0.79907,2.92867 -0.035,0.13049 -0.0653,0.23663 -0.10059,0.36823 -0.0152,0.0565 -0.0582,0.23235 -0.074,0.29158 -1.09653,4.09527 -2.31313,8.86281 -3.63091,14.11979 -1.00432,3.82635 -2.02152,7.71829 -3.20007,12.27234 -3.17091,12.2529 -5.31729,20.39818 -6.89361,26.02393 -0.16531,0.58375 -0.36027,1.29144 -0.51246,1.81765 -0.0803,0.27408 -0.15808,0.53344 -0.23536,0.7939 -1.67017,5.69744 -2.55843,7.91082 -3.3557,8.9712 -0.6005,0.79868 -1.71073,1.29979 -3.49995,1.55373 -1.16275,0.0887 -2.62179,0.0795 -4.58562,0.0724 -1.18217,-0.004 -2.16105,-0.0246 -3.05581,-0.0553 -3.24213,-0.23121 -4.94194,-0.62529 -5.58018,-1.39624 -0.14317,-0.20763 -0.2389,-0.45464 -0.31508,-0.72365 -0.0143,-0.10181 -0.0294,-0.20261 -0.0323,-0.35545 -0.002,-0.0343 -0.003,-0.0664 -0.004,-0.10428 1.3e-4,-0.49618 0.0571,-1.24045 0.15184,-2.13266 0.2925,-2.47027 0.96535,-6.62396 1.89423,-11.67426 0.0116,-0.0627 0.0225,-0.12012 0.0342,-0.18304 0.16703,-0.84836 0.3117,-1.63237 0.46881,-2.44341 1.48963,-6.20054 2.5246,-11.78333 3.2513,-18.02115 1.44556,-8.21098 2.80154,-16.25104 3.9384,-23.35491 0.0241,-0.14909 0.043,-0.27716 0.0665,-0.42355 0.88496,-5.21889 1.53903,-9.00646 2.00241,-11.59125 1.04363,-4.63323 1.79815,-9.12918 1.51272,-12.3809 -0.16998,-2.15683 -0.53308,-4.24886 -1.04011,-6.26174 -0.68398,-3.09864 -1.8819,-6.12488 -3.65179,-9.72041 -2.13082,-4.32857 -5.33398,-9.08073 -7.82934,-11.93392 -0.90239,-1.06577 -1.70071,-1.84933 -2.33077,-2.2561 -0.395,-0.40557 -0.62445,-0.62149 -0.62445,-0.62149 0,0 -0.0122,0.0146 -0.0171,0.0213 l -0.1044,-0.11919 -0.29799,0.49592 c -0.3253,0.24445 -0.87486,1.06128 -1.5279,2.188 -0.0306,0.0513 -0.0618,0.10806 -0.093,0.16175 -0.12393,0.21638 -0.24668,0.43447 -0.37771,0.67257 -0.24825,0.45111 -0.50143,0.91049 -0.76869,1.42603 -0.18348,0.34123 -0.36615,0.68777 -0.55423,1.0493 -1.02194,1.85532 -2.11933,4.0916 -3.12983,6.6108 -0.25779,0.60956 -0.50986,1.21256 -0.72125,1.76657 -0.35787,0.93784 -0.65026,1.82173 -0.89586,2.72223 -0.13916,0.43081 -0.26216,0.83414 -0.34925,1.18126 -0.11459,0.45692 -0.21514,0.91644 -0.30747,1.3792 -0.98858,4.03803 -1.5298,8.46116 -1.14641,13.05559 0.0704,0.90327 0.20761,1.82424 0.38151,2.75628 l 0.0303,0.97267 -0.002,0.38951 0.94521,2.57536 c 0.77156,2.59435 1.78014,5.22253 2.86032,7.81547 0.72209,2.02758 1.4335,4.051 1.97964,5.6807 0.61885,1.88537 1.0978,3.49978 1.40074,4.88893 0.86216,5.32817 0.17164,16.47485 -1.49754,27.56063 -0.11696,0.77672 -0.24384,1.55049 -0.37012,2.32421 -0.14368,0.86332 -0.2882,1.72599 -0.44033,2.56897 -0.006,0.03 -0.01,0.0615 -0.0152,0.0915 -0.003,0.0142 -0.005,0.0284 -0.008,0.0426 -0.82698,4.56329 -1.77079,8.79405 -2.76162,12.37024 -0.232,0.83737 -0.46794,1.63097 -0.70417,2.39232 -0.0328,0.10542 -0.0659,0.21161 -0.0987,0.31501 -0.1996,0.63262 -0.40044,1.2262 -0.60167,1.7985 -0.11972,0.33517 -0.23893,0.66111 -0.35873,0.97054 -0.0994,0.2631 -0.19858,0.51939 -0.29799,0.76623 -1.1788,2.83269 -2.38385,4.47035 -3.75998,5.18904 -0.0538,0.023 -0.11342,0.0444 -0.17082,0.066 -0.47444,0.15507 -1.11768,0.28725 -1.93409,0.40014 -2.16308,0.16991 -6.48618,0.34125 -11.1167,0.42781 -2.84162,0.0531 -5.31482,0.0676 -7.48769,0.0489 -0.16542,-0.002 -0.36094,-0.002 -0.52196,-0.004 -2.76077,-0.032 -4.9455,-0.13049 -6.65446,-0.28946 -0.46914,-0.0484 -0.93908,-0.0955 -1.3419,-0.15111 -0.13343,-0.0184 -0.26237,-0.0379 -0.38719,-0.0575 -0.39271,-0.06 -0.71135,-0.12636 -1.02304,-0.19368 -0.4044,-0.0941 -0.77584,-0.19284 -1.04391,-0.30649 -0.11891,-0.0537 -0.22351,-0.10952 -0.31887,-0.16815 -0.0908,-0.0588 -0.17841,-0.12261 -0.26382,-0.18943 -1.00895,-0.89782 -2.53706,-4.5985 -3.37088,-8.222 -0.7208,-3.13227 -1.23833,-6.4495 -1.60384,-11.08469 -0.0494,-0.67906 -0.10102,-1.31718 -0.14615,-2.0603 -0.1034,-1.61749 -0.19176,-3.3891 -0.26571,-5.3593 -0.011,-0.26635 -0.0198,-0.56466 -0.0303,-0.83647 -0.0714,-2.06262 -0.12851,-4.34133 -0.17273,-6.86407 -0.005,-0.28365 -0.0107,-0.52215 -0.0152,-0.81306 -0.0926,-5.76226 -0.12338,-12.76709 -0.10629,-21.55003 0.009,-4.4654 0.0302,-9.38311 0.0607,-14.81152 0.094,-16.73104 0.20469,-27.41032 0.4726,-36.31047 0.18448,-4.91124 0.39508,-9.59105 0.64723,-13.91121 0.42288,-6.68971 1.00131,-13.53334 1.84487,-22.65893 2.10847,-22.80898 3.56873,-36.23771 4.65016,-42.48069 0.009,-0.0519 0.0195,-0.13212 0.0285,-0.18305 0.0106,-0.0587 0.0199,-0.10014 0.0303,-0.1575 0.13065,-0.73166 0.2521,-1.28443 0.37201,-1.80488 0.11322,-0.48501 0.22178,-0.88267 0.32456,-1.18126 0.2035,-0.4783 0.41428,-0.72878 0.64723,-0.78751 0.36378,-0.008 0.94852,0.2765 1.78603,0.87051 2.70356,2.0084 7.61128,6.72667 12.68447,12.02333 1.74059,1.85017 3.54571,3.80337 5.45112,5.93185 2.8829,3.22037 5.86403,6.73447 7.92614,9.30109 0.84598,1.11841 1.67695,2.24337 2.47881,3.38415 1.62067,2.37952 3.32497,5.07123 5.03734,7.91977 0.14136,0.237 0.27761,0.45432 0.41948,0.69386 4.9e-4,8.4e-4 9.7e-4,10e-4 0.002,0.002 0.76327,1.28123 1.52541,2.59868 2.28332,3.93328 0.24842,0.43529 0.47938,0.85737 0.72314,1.28981 0.74622,1.3342 1.49088,2.67726 2.215,4.03544 0.27137,0.51915 0.53309,0.9996 0.80855,1.53458 0.39536,0.75555 0.79123,1.51223 1.17487,2.26675 0.10905,0.21445 0.21113,0.38683 0.31888,0.59169 0.51814,1.04714 0.96021,1.98662 1.27547,2.73286 0.28244,0.79143 0.49821,1.47798 0.67948,1.98579 0.2431,0.68098 0.40428,0.98333 0.40428,0.98333 0,0 0.16309,-0.37801 0.40618,-0.98333 0.0288,-0.12099 0.10013,-0.30079 0.14615,-0.44057 0.17658,-0.25769 0.33038,-0.72961 0.4726,-1.28982 0.12574,-0.41852 0.24524,-0.90254 0.35114,-1.48349 0.13302,-0.5416 0.25911,-1.15042 0.32645,-1.77934 0.16207,-0.75664 0.24164,-1.5896 0.32266,-2.57323 0.0811,-0.90797 0.0822,-1.89185 0.16324,-2.87547 0,-1.0593 -0.0816,-2.11722 -0.0816,-3.25219 -0.081,-1.13496 -0.24222,-2.27143 -0.40429,-3.48206 -0.24309,-1.21063 -0.48764,-2.42138 -0.73073,-3.70767 -0.64825,-2.49691 -1.45826,-5.145 -2.5927,-7.71757 -1.05341,-2.64824 -2.35004,-5.2961 -3.97066,-7.86868 -1.5396,-2.57259 -3.32167,-5.06859 -5.18539,-7.48984 -1.94476,-2.34559 -3.96992,-4.69228 -6.2388,-6.81087 -2.18784,-2.11859 -4.53859,-4.08421 -6.96953,-5.74881 -2.34991,-1.74028 -4.86183,-3.1791 -7.37381,-4.46538 -1.56333,-0.75344 -3.0894,-1.40819 -4.57043,-1.98579 -0.99841,-0.40971 -2.00293,-0.78546 -3.01216,-1.12805 -0.56358,-0.23234 -1.08053,-0.45948 -1.67216,-0.69599 -0.54817,-0.21916 -0.89472,-0.37261 -1.29255,-0.54274 -0.40326,-0.18535 -0.86432,-0.38859 -1.1483,-0.54061 -0.83362,-0.47536 -1.28342,-0.87943 -1.54309,-1.31323 -0.0157,-0.0343 -0.0387,-0.0622 -0.0532,-0.0979 -0.0629,-0.15608 -0.11146,-0.32859 -0.15753,-0.51934 -0.0192,-0.13034 -0.0394,-0.27099 -0.055,-0.44909 -2.8e-4,-0.003 2.8e-4,-0.01 0,-0.0128 -0.0391,-0.45393 -0.0653,-1.06149 -0.0816,-1.7836 -0.0266,-1.24619 -0.0152,-2.89081 0.0227,-4.72717 0.1865,-5.74727 0.65107,-14.07037 1.22232,-20.46029 l 0.15184,-1.69421 c 0.0813,-0.72518 0.27712,-2.48597 0.27712,-2.48597 l -8.58854,9.45647 c 0,0 -0.01,0.0634 -0.0152,0.10216 l -0.22017,0.22987 -0.0227,0.16389 -0.0721,0.0766 -1.7253,12.57458 c -1.74526,12.72515 -4.53196,32.14744 -6.21412,43.48317 -1.78586,11.62339 -2.08852,12.07601 -4.01242,10.57814 -0.0842,-0.0656 -0.21911,-0.19295 -0.31696,-0.27456 -0.83199,-0.72999 -2.01595,-1.87042 -3.35761,-3.19898 -7.29558,-7.31167 -21.80618,-23.37105 -27.91608,-31.0065 -1.33971,-1.77686 -2.70975,-3.63402 -4.15857,-5.67645 -0.39772,-0.5629 -0.79419,-1.12103 -1.20524,-1.71123 -0.2633,-0.37651 -0.5388,-0.77996 -0.80666,-1.16636 -3.99564,-5.78735 -8.65426,-12.88942 -14.62614,-22.28433 -0.77424,-1.21802 -1.50587,-2.33488 -2.23018,-3.43949 -1.02131,-1.69054 -1.94068,-3.23208 -2.56992,-4.33341 -0.0173,-0.0302 -0.0322,-0.051 -0.0494,-0.0809 l -2.19412,-4.0993 -0.8636,0.23412 c -0.14221,-0.0185 -0.27524,0.0108 -0.39099,0.10429 l 0,0.002 -0.002,0 -0.038,0.0106 c -0.0415,0.002 -0.0786,0.0114 -0.11198,0.0298 l -0.019,0.006 c -0.0834,-0.0152 -0.15163,0.002 -0.20119,0.0553 l -0.31887,0.0873 c 0,0 0.11168,0.73702 0.2923,1.82617 0.0289,0.21091 0.0615,0.42638 0.10438,0.68533 0.0404,0.29203 0.0757,0.5732 0.13667,0.92799 0.11851,0.69869 0.31079,1.64778 0.51246,2.62005 0.1728,0.91805 0.36752,1.89532 0.58269,2.97338 0.0338,0.17495 0.0696,0.35205 0.10439,0.52784 0.0448,0.22768 0.086,0.42041 0.13097,0.65555 0.0323,0.14045 0.0664,0.30028 0.0987,0.44271 0.43035,2.07419 0.92639,4.19794 1.48616,6.36817 0.0132,0.0514 0.0226,0.0974 0.036,0.14898 0.64825,2.57258 1.37679,5.29664 2.26813,8.24754 0.81032,2.9509 1.86444,5.97753 2.99888,9.07976 1.0534,3.1779 2.26855,6.4318 3.64609,9.6097 1.37753,3.25355 2.91751,6.50728 4.53818,9.76085 1.70163,3.25355 3.24137,6.58175 5.02406,9.83532 1.70165,3.25355 3.72813,6.43342 6.15907,9.23299 0.56721,0.68098 1.21561,1.36017 1.86386,2.04114 0.64825,0.68097 1.29591,1.28684 2.02518,1.89214 1.37754,1.21063 2.91769,2.27068 4.29522,3.25433 1.53959,0.98362 3.07771,1.88991 4.53627,2.72221 1.62062,0.75664 3.08077,1.51361 4.7014,2.04326 1.62063,0.52964 3.07771,1.05952 4.53627,1.36218 1.53959,0.30265 2.91769,0.60541 4.29522,0.68108 0.47075,0.0258 0.91596,0.0354 1.36468,0.0468 0.11301,0.0129 0.20735,0.0257 0.32266,0.0383 1.20765,0.13348 2.35015,0.29447 3.25891,0.44695 0.10095,0.0187 0.16989,0.0349 0.26382,0.0532 1.15814,0.25597 1.69348,0.59324 1.89422,1.31961 0.0435,0.24804 0.0844,0.51406 0.11198,0.84924 9.8e-4,0.02 8.6e-4,0.0435 0.002,0.0639 0.0205,0.89234 -0.005,2.16041 -0.0816,4.45047 -0.0502,1.50332 -0.13037,2.98404 -0.23346,4.41856 -0.51122,5.82271 -1.52765,11.67815 -2.48641,13.46425 -0.0315,0.0543 -0.0617,0.11145 -0.0948,0.16388 -0.0812,0.13281 -0.17725,0.25801 -0.27901,0.38099 -0.0627,0.0747 -0.1288,0.14611 -0.1974,0.2171 -1.14334,1.15629 -3.66476,1.97609 -10.03294,3.4182 -0.27498,0.0631 -0.51329,0.11771 -0.83133,0.18943 -1.69966,0.23927 -3.34025,0.53801 -4.91967,0.91521 -0.0245,0.005 -0.0496,0.01 -0.074,0.0149 -0.37548,0.0903 -0.74437,0.19088 -1.11413,0.28947 -0.37154,0.0976 -0.74419,0.19581 -1.11034,0.30222 -0.0203,0.005 -0.0404,0.011 -0.0607,0.017 -6.56141,1.91728 -12.29496,5.25409 -18.4089,10.56324 -0.60989,0.52909 -1.22324,1.07674 -1.84108,1.64524 -0.61842,0.56905 -1.21548,1.15173 -1.81261,1.73465 -0.9014,0.8429 -1.74885,1.72583 -2.57941,2.62431 -0.0933,0.0995 -0.19203,0.19384 -0.28471,0.29372 -0.0401,0.0433 -0.0776,0.0887 -0.11767,0.13197 -0.0832,0.09 -0.16214,0.1821 -0.24485,0.27243 -0.30845,0.33652 -0.61572,0.66895 -0.92813,1.00673 -0.13619,0.16249 -0.26822,0.32903 -0.40428,0.49166 -0.15702,0.18027 -0.32304,0.35485 -0.4783,0.53635 -9.1e-4,0.001 -0.003,0.003 -0.004,0.004 -0.70505,0.8243 -1.39254,1.66186 -2.06126,2.51152 -9.7e-4,0.002 -0.002,0.004 -0.004,0.006 -2.00708,2.55063 -3.85116,5.21684 -5.53464,8.00278 -0.32457,0.537 -0.63066,1.08655 -0.94331,1.63247 -0.22848,0.39905 -0.46683,0.79229 -0.68898,1.19617 -0.002,0.004 -0.004,0.007 -0.006,0.0106 -0.5237,0.95252 -1.0298,1.91714 -1.51842,2.89676 -2.25341,4.51662 -4.122275,9.33337 -5.639019,14.4433 -0.135898,0.45741 -0.281747,0.90621 -0.411871,1.36856 -7.52e-4,0.002 -0.0012,0.004 -0.0019,0.006 -0.632929,2.2496 -1.197675,4.55927 -1.694933,6.92794 -0.200068,0.95291 -0.369279,2.18084 -0.521955,3.52037 -0.01597,0.12711 -0.03211,0.24194 -0.04745,0.37673 -0.205009,1.30735 -0.38395,2.6028 -0.542834,3.88858 -0.162063,1.96727 -0.40676,3.85721 -0.487791,5.74881 0,1.8916 -0.160753,3.70841 -0.07972,5.4487 0.08103,1.74027 0.0803,3.48086 0.161331,5.06984 0.162062,1.66461 0.244114,3.17676 0.406177,4.61437 0.19039,1.12594 0.338205,2.23265 0.506771,3.28624 4.36e-4,0.002 0.0015,0.006 0.0019,0.009 0.0041,0.0223 0.0073,0.0526 0.01139,0.0745 l 0.0019,0.009 c 0.04204,0.25899 0.07833,0.53436 0.12527,0.78326 l 0,0.002 c 0.10302,0.7162 0.214339,1.36775 0.339745,1.86022 0.0012,0.004 0.0026,0.008 0.0038,0.0128 0.0014,0.005 0.0024,0.007 0.0038,0.0128 0.375359,1.80604 0.828309,3.43153 1.191957,4.84636 0.486187,1.81594 1.053838,3.25401 1.377963,4.23764 0.405157,0.98363 0.567508,1.51542 0.567508,1.51542 0,0 0.891333,-2.04573 2.106803,-5.60194 0.712333,-1.69984 1.353353,-3.83913 2.213093,-6.19364 0.79013,-2.02912 1.64319,-4.24904 2.52436,-6.57888 4.56127,-12.05995 8.38942,-21.75118 11.83606,-29.80608 0.38579,-0.8965 0.77077,-1.78743 1.1502,-2.65198 0.63815,-1.44464 1.26332,-2.82991 1.87905,-4.16954 0.0716,-0.15546 0.14477,-0.31939 0.21637,-0.47463 0.30902,-0.66273 0.61343,-1.30487 0.92054,-1.95813 0.36313,-0.76828 0.72231,-1.5107 1.07998,-2.24547 0.64198,-1.30962 1.28058,-2.58847 1.9113,-3.8077 0.0598,-0.11579 0.11872,-0.22985 0.17842,-0.34479 1.41024,-2.71157 2.79887,-5.19708 4.17754,-7.50474 0.2964,-0.48819 0.59218,-0.97626 0.89017,-1.44944 0.0311,-0.0494 0.0619,-0.0998 0.093,-0.14899 2.96317,-4.68701 6.02437,-8.66847 9.52237,-12.5022 1.71422,-1.87876 3.60741,-3.76336 5.51755,-5.53384 0.0236,-0.0219 0.0466,-0.0441 0.0703,-0.066 0.22156,-0.20497 0.44064,-0.39008 0.66241,-0.59169 4.01441,-3.58792 8.17212,-6.75425 10.83771,-8.20711 0.84994,-0.42232 1.52402,-0.6362 1.94546,-0.58105 l 0.76111,0.10004 c 0.0341,0.0967 0.0588,0.27011 0.0854,0.42354 l -0.0418,5.64238 c -0.0143,1.84756 -0.19083,5.86807 -0.41756,10.47173 -0.0935,1.46986 -0.16317,2.63513 -0.29229,4.57605 -0.41937,6.30363 -0.75528,11.84131 -1.05341,17.05698 -0.11676,1.91678 -0.21672,3.68633 -0.31507,5.44445 -1.17837,16.83058 -1.48369,30.108 -0.29608,43.26395 0.005,0.059 0.007,0.12206 0.0114,0.18091 0.0218,0.27743 0.0492,0.77739 0.0721,1.08974 0.0694,1.21049 0.16156,2.47605 0.24675,3.72683 0.32443,5.52681 0.61106,11.23406 0.65291,13.44934 0.0415,2.19401 0.0536,3.3444 -0.0303,4.04822 -0.009,0.0508 -0.0132,0.11887 -0.0227,0.16601 -0.004,0.0233 -0.01,0.0417 -0.0133,0.0639 -0.0371,0.16819 -0.0842,0.30535 -0.13665,0.4342 -0.054,0.10687 -0.10524,0.21725 -0.17082,0.31075 -0.0575,0.082 -0.12698,0.15397 -0.19171,0.22987 -0.0451,0.044 -0.085,0.087 -0.13665,0.13408 -0.43514,0.39669 -1.34682,0.88726 -2.02519,1.08974 -1.03349,0.30847 -3.42713,0.65573 -6.50452,0.99396 -3.54982,0.3546 -8.51198,0.71702 -15.6245,1.17062 -1.09575,0.0699 -1.93132,0.13511 -2.84893,0.2022 -1.44183,0.0663 -2.87366,0.1267 -4.26296,0.17027 -1.54422,0.0484 -2.77091,0.094 -3.78465,0.14473 l -4.28953,0.0234 0,0.48315 c -0.0494,0.0415 -0.0913,0.0875 -0.12907,0.13835 l -0.0683,0.004 -0.004,0.12558 -0.0873,0.0106 0,0.0298 -0.33974,0 0,9.37985 0.0987,0 0,0.009 18.72778,0 18.4981,0 0.01,0.0681 0.15753,5.17627 0,6.74915 0,1.75805 0,0.88329 c 0,2.98887 0.0258,5.81223 0.0607,8.42633 l 0,12.11484 0,0.0128 0.0645,0 0,0.0319 0.0627,0 0.004,0.24052 8.58284,0 7.71925,0 0.44034,0.006 0.0683,9.84384 c 0.005,0.71541 0.0116,0.82118 0.0171,1.51968 l 0,5.55725 0,0.53635 0,0.3895 0,18.1297 0.0323,0 0,0.13834 12.31625,0 0,-0.25328 0.0247,0 0,-1.92194 0.13855,-3.66298 c 0.0444,-1.17875 0.12202,-2.39129 0.1993,-3.59486 0.3048,-3.60238 0.6146,-6.87104 0.88448,-9.04357 0.0542,-0.36472 0.1085,-0.69461 0.16323,-1.00886 0.0641,-0.32659 0.12768,-0.64703 0.19359,-0.9152 0.0746,-0.30359 0.13632,-0.54782 0.20119,-0.79815 0.11174,-0.36736 0.22469,-0.67284 0.33974,-0.85988 0.17588,-0.28595 0.44783,-0.53992 0.75732,-0.77261 0.12557,-0.0706 0.24745,-0.14287 0.39289,-0.20432 0.0534,-0.0204 0.10731,-0.0415 0.16133,-0.0617 1.84702,-0.57927 6.05902,-0.62438 16.67032,-0.71089 11.94466,-0.0974 15.46816,-0.0267 16.26794,0.3363 0.0445,0.0224 0.0907,0.0436 0.13285,0.0681 0.40716,0.26684 0.84194,0.91484 1.17488,1.71335 0.0887,0.23501 0.17775,0.46495 0.26003,0.74707 0.0459,0.16015 0.0934,0.33483 0.14045,0.54487 0.0221,0.0872 0.041,0.18983 0.0626,0.28095 0.21924,1.06785 0.44656,2.69815 0.66241,4.55051 0.10794,0.99238 0.21538,2.01395 0.31507,3.10533 9.7e-4,0.0135 0.003,0.0249 0.004,0.0383 7.9e-4,0.009 9.7e-4,0.017 0.002,0.0255 0.12168,1.33673 0.23394,2.7145 0.33025,4.0546 9.7e-4,0.0155 0.003,0.0314 0.004,0.0468 0.002,0.0312 0.004,0.0625 0.006,0.0937 0.0902,1.49073 0.151,2.59389 0.20119,3.62253 0.002,0.19376 0.0113,0.41728 0.0114,0.60233 l 0.004,3.72258 0.002,0 0,0.2554 10.61373,0 0,-0.0681 0.006,0 0,-3.3054 c 0,-0.43916 0.0152,-0.9962 0.0342,-1.57076 l 0.10819,-2.25398 0.0152,-0.25966 c 0.25967,-4.15561 0.68006,-8.99265 1.02874,-11.76578 0.0447,-0.32618 0.0853,-0.60732 0.12716,-0.85349 0.0807,-0.38244 0.16326,-0.74468 0.25243,-1.05355 0.29092,-0.80713 0.75205,-1.3305 1.63989,-1.8283 1.29244,-0.72473 2.0239,-0.75771 17.25681,-0.75771 12.69828,0 15.27914,0.0296 16.19012,0.44058 0.0981,0.0543 0.19537,0.10833 0.2866,0.16814 0.0462,0.0379 0.10021,0.0701 0.14235,0.11281 0.39154,0.39724 0.85849,1.33421 1.03632,2.08156 0.0725,0.30479 0.1635,0.93862 0.26192,1.70272 0.0743,0.60752 0.15194,1.27446 0.23725,2.105 0.0177,0.16423 0.0353,0.34584 0.0532,0.51719 0.19132,1.91381 0.45139,4.99824 0.71936,8.1837 0.0657,0.90172 0.12003,1.75362 0.17271,2.60302 0.003,0.0775 0.007,0.16376 0.01,0.24051 l 0.0474,1.50691 0,4.0546 10.61564,0 0,-3.95243 c 0.0635,-1.45819 0.12712,-3.27329 0.17462,-5.19755 0.0853,-3.4576 0.25843,-6.24588 0.53334,-8.43059 0.0916,-0.72824 0.19487,-1.38961 0.30938,-1.9858 0.11113,-0.57865 0.2328,-1.09087 0.36631,-1.54947 0.009,-0.0307 0.0175,-0.0636 0.0265,-0.0936 0.0579,-0.1932 0.12011,-0.37524 0.18221,-0.54699 0.057,-0.15312 0.11433,-0.30405 0.17462,-0.43632 0.0228,-0.0528 0.045,-0.11151 0.0683,-0.16176 0.006,-0.013 0.011,-0.0276 0.0171,-0.0404 0.0381,-0.0806 0.0801,-0.14732 0.11958,-0.22135 0.0536,-0.0794 0.10428,-0.161 0.16513,-0.23625 l 0.3872,-0.4789 c 0.003,-0.003 0.007,-0.006 0.01,-0.009 0.30155,-0.21518 0.70163,-0.38336 1.25079,-0.51081 1.66896,-0.1501 6.23605,-0.29819 11.6102,-0.35544 9.10181,-0.097 15.94896,0.12295 19.3674,0.59382 0.94738,0.14522 1.68183,0.31486 2.18083,0.51295 1.06002,0.55776 1.45074,1.6272 1.83158,4.94639 0.24712,2.34495 0.47256,5.73479 0.72884,10.85058 l 0.18601,3.69703 0.0152,0.52358 0,3.08192 12.31626,0 0,-36.12318 8.4443,0 8.58095,0 0,-0.74493 0.0797,0 0,-4.88042 0,-4.87829 -0.002,0 0,-0.002 -0.0665,0 c 3.4e-4,-0.17358 0.005,-0.35716 0.006,-0.53209 0.0759,-2.32889 0.20983,-6.76405 0.31318,-10.42064 0.008,-0.27782 0.0185,-0.4423 0.0265,-0.70876 0.021,-0.48544 0.0433,-1.03698 0.0645,-1.54522 0.0805,-1.68788 0.16263,-3.17809 0.24295,-4.55689 0.0845,-1.1776 0.16922,-2.19053 0.25623,-2.98402 0.21244,-1.49025 0.48161,-2.35347 0.84462,-2.76054 0.34206,-0.38358 1.39429,-0.67541 3.45819,-0.91094 1.88475,-0.17948 4.60369,-0.32794 8.93209,-0.49592 1.61586,-0.0627 3.20322,-0.10839 4.84754,-0.16389 1.53096,-0.0392 2.7329,-0.0829 4.53058,-0.11919 l 4.23828,-0.0851 1.0515,-0.009 1.9151,0.0298 5.39039,0.10429 0,-0.0213 0,-0.0106 0,-0.0149 0,-0.13196 0.19549,0 0,-1.33876 0.15754,0 0,-4.22913 0,-4.22913 -0.15754,0 0,-0.1426 -19.63692,0 c -5.61237,-0.0518 -12.52629,-0.0816 -19.7508,-0.0958 l -1.5374,-0.0149 -32.25497,-0.29584 c -4.93719,-0.0893 -8.42056,-0.17837 -8.55248,-0.25754 -0.0344,-0.0207 -0.079,-0.0739 -0.11578,-0.10216 l -0.4707,-0.57041 -0.23536,-0.3299 -1.01544,-1.56864 c -0.10167,-0.15718 -0.184,-0.3061 -0.27711,-0.45973 -0.75105,-1.44287 -1.4877,-3.16944 -1.95116,-4.69524 -0.57901,-1.90619 -0.99226,-4.22093 -1.2603,-7.14078 -0.0944,-1.14921 -0.17097,-2.48023 -0.24673,-3.79067 -0.0911,-2.01169 -0.14046,-4.23069 -0.14046,-6.75767 0,-3.88061 0.10479,-5.95195 0.33785,-7.06416 0.1047,-0.35722 0.23834,-0.73727 0.40618,-1.13869 0.38956,-0.78849 1.25693,-2.32879 2.27762,-4.10354 1.22694,-2.02695 2.74531,-4.52607 5.42454,-8.89458 -9.7e-4,-0.0722 -0.003,-0.16326 -0.004,-0.24052 l 0.17272,-0.0787 c 0.26395,-0.35326 0.53235,-0.68973 0.61116,-1.15999 0.15103,-0.53734 0.37055,-1.04787 0.63964,-1.52392 0.13517,-0.26399 0.28204,-0.51776 0.42705,-0.77474 1.16941,-1.82548 2.27039,-3.56247 3.25321,-5.14434 0.0129,-0.0116 0.0249,-0.0247 0.038,-0.0362 l -0.0209,0.009 c 0.29593,-0.47641 0.51297,-0.8467 0.79337,-1.30259 0.18778,-0.2227 0.36308,-0.45804 0.52955,-0.7045 l -0.14615,0.0702 c 0.24975,-0.40813 0.46475,-0.76811 0.70227,-1.15998 2.19301,-3.28515 4.2326,-6.1602 6.27865,-8.80518 7.89953,-9.70147 15.69896,-17.54737 23.31719,-23.44643 1.8254,-1.38337 3.69657,-2.7086 5.71873,-4.01629 0.14999,-0.0967 0.31152,-0.19496 0.46312,-0.29159 0.93345,-0.59721 1.89916,-1.19498 2.90207,-1.7985 0.63499,-0.38015 1.30986,-0.77015 1.97964,-1.15785 0.56304,-0.30175 1.12689,-0.60649 1.68734,-0.88541 2.48982,-1.23911 4.95548,-2.65253 5.47958,-3.14151 0.0762,-0.0711 0.1795,-0.13533 0.30179,-0.19794 l 0.0285,-0.017 c 0.38236,-0.18772 0.97931,-0.33583 1.76137,-0.44697 0.42123,0.51456 0.84757,1.02348 1.24889,1.558 0.59384,0.77235 1.23476,1.49118 1.89423,2.18799 0.0155,0.0366 0.02,0.0563 0.036,0.0937 0.55298,1.28772 1.47463,3.13764 2.65343,5.23586 1.47038,2.61721 2.95246,5.52682 4.39961,8.57532 1.50119,3.24018 3.03744,6.77126 4.40341,10.07583 1.96291,4.91481 3.76038,10.03698 5.42075,15.39896 1.41805,4.83108 2.55284,9.1677 2.55284,9.80341 0,0.66996 0.15203,1.04696 0.33785,0.83859 0.49702,-0.55735 -1.39627,-16.52157 -3.08429,-26.01116 -1.44754,-8.13768 -3.42306,-15.86996 -5.47579,-21.53301 -0.5985,-2.41583 -1.74142,-5.17391 -3.74669,-8.14538 -0.0689,-0.11839 -0.14071,-0.23541 -0.21068,-0.35331 -1.17022,-3.35606 -7.67846,-11.01529 -11.71269,-13.16201 -3.6477,-1.94105 -9.26433,-2.1529 -13.05269,-0.49166 -1.75706,0.7705 -4.06377,1.59496 -5.12655,1.83042 -5.03514,1.11563 -14.95272,10.79156 -22.29225,21.75223 -2.17527,3.24849 -4.51678,7.16018 -6.75127,11.12727 -2.66276,3.9364 -5.85052,9.2792 -9.20539,16.21626 -0.12603,0.23306 -0.27262,0.4939 -0.39479,0.72153 -0.14485,0.26988 -0.20227,0.37608 -0.33975,0.63214 -0.14013,0.21608 -0.27596,0.43366 -0.36631,0.67682 -0.1802,0.33544 -0.3057,0.56653 -0.47261,0.87691 0.0506,-0.24958 0.10948,-0.49811 0.17841,-0.74495 -1.99477,4.00855 -3.20304,6.33896 -3.98395,7.67075 -0.12406,0.20575 -0.24481,0.4015 -0.33974,0.54487 -0.0277,0.0415 -0.0534,0.079 -0.0797,0.11706 -0.36836,0.53426 -0.53289,0.61354 -0.72504,0.61937 -0.1777,0.005 -0.32138,-0.3373 -0.43465,-1.08549 -0.0735,-0.68618 -0.13274,-1.6785 -0.17841,-2.94144 -0.0832,-5.75156 -0.0256,-15.64131 0.13665,-26.24102 0.0777,-3.53419 0.16836,-7.17175 0.28471,-10.96551 0.4383,-14.29346 0.89467,-24.32112 1.48425,-31.58756 0.2901,-3.41133 0.60965,-6.32338 0.9585,-8.69876 0.12935,-0.84805 0.26094,-1.66754 0.40238,-2.39445 0.0298,-0.15215 0.0588,-0.30592 0.0892,-0.45334 0.0787,-0.38407 0.16027,-0.74823 0.24295,-1.10039 0.0378,-0.16065 0.0752,-0.31795 0.11389,-0.4725 0.0828,-0.33136 0.16744,-0.65372 0.25433,-0.95778 0.0269,-0.0944 0.0558,-0.18389 0.0835,-0.27456 1.05416,-3.20213 2.88496,-5.6001 7.22197,-10.45683 2.31527,-2.59271 4.84642,-5.25483 7.49907,-7.95169 2.22674,-2.22316 4.6539,-4.5984 7.43455,-7.2472 0.35848,-0.34148 0.69877,-0.67767 1.0496,-1.01737 1.06637,-0.99796 2.13142,-1.99485 3.23613,-3.00104 0.71713,-0.59898 1.45556,-1.21475 2.00052,-1.69421 0.34575,-0.29204 1.32469,-1.08902 1.47666,-1.22383 0.65542,-0.58148 1.33024,-1.34607 2.0024,-2.2114 0.11519,-0.13649 0.235,-0.27476 0.34355,-0.41079 0.0335,-0.0414 0.0733,-0.0841 0.10628,-0.12557 9.8e-4,-0.001 0.003,-0.002 0.004,-0.004 0.25167,-0.31658 0.48823,-0.63452 0.71745,-0.96203 9.7e-4,-0.001 0.003,-0.002 0.004,-0.004 0.22769,-0.32549 0.44906,-0.65983 0.6738,-1.01525 0.33272,-0.52619 0.70336,-1.19316 1.08566,-1.93896 9.7e-4,-0.002 0.003,-0.004 0.004,-0.006 0.12007,-0.23435 0.24099,-0.51363 0.36252,-0.76197 0.0292,-0.0595 0.0581,-0.12073 0.0873,-0.18092 0.0605,-0.12002 0.12075,-0.23843 0.18031,-0.35969 0.1635,-0.33111 0.31847,-0.66994 0.47261,-1.00887 0.0215,-0.0476 0.0432,-0.0906 0.0645,-0.13834 0.31404,-0.6951 0.61216,-1.40057 0.88827,-2.11988 0.0546,-0.13711 0.12016,-0.27967 0.17272,-0.41504 0.32368,-0.83339 0.60593,-1.62675 0.81995,-2.32421 0.20252,-0.66 0.40351,-1.40093 0.60167,-2.19651 0.11619,-0.46706 0.22678,-0.98882 0.33975,-1.49201 0.0654,-0.29137 0.13527,-0.5627 0.19929,-0.86413 0.003,-0.0139 0.009,-0.0287 0.0114,-0.0426 0.01,-0.0445 0.019,-0.0809 0.0285,-0.12557 9.8e-4,-0.005 0.003,-0.0133 0.004,-0.0192 0.0198,-0.0943 0.0373,-0.19861 0.057,-0.29372 9.7e-4,-0.005 0.003,-0.01 0.004,-0.0149 0.40029,-1.86382 0.74483,-3.80726 1.02493,-5.74028 0.0845,-0.53548 0.14447,-1.01163 0.21258,-1.50052 0.002,-0.0123 0.002,-0.0239 0.004,-0.0362 0.12334,-0.88876 0.22992,-1.75621 0.30559,-2.54982 0.24329,-2.20339 0.39858,-4.24663 0.39858,-5.81691 l 0,-0.14899 0,-0.79177 0.1006,-1.41752 -0.0152,0.002 0,-0.002 -0.0854,0.006 0,-0.29797 0,-0.004 0.002,-0.0362 -0.27142,0.0362 -1.0591,0 -0.0341,0 c -0.40072,0 -0.86281,0.061 -1.37416,0.16601 -0.0583,0.0109 -0.11289,0.0177 -0.17273,0.0298 -0.007,0.001 -0.0122,0.002 -0.0189,0.004 -0.26157,0.0534 -0.53671,0.11851 -0.82564,0.20007 -0.31496,0.0889 -0.64527,0.19326 -0.98887,0.315 -0.38342,0.13585 -0.81766,0.30916 -1.28875,0.50869 -1.29751,0.52526 -2.77202,1.21385 -4.43757,2.07945 -0.28325,0.14719 -0.5558,0.29913 -0.83324,0.44909 -0.0541,0.0288 -0.10742,0.0583 -0.16132,0.0873 -0.24895,0.13558 -0.49795,0.27087 -0.74213,0.40866 -1.205,0.66446 -2.31666,1.33337 -3.3576,2.0241 -0.42387,0.27303 -0.82377,0.53796 -1.17867,0.78964 -0.0122,0.009 -0.0256,0.019 -0.038,0.0277 -0.0363,0.0256 -0.0842,0.0556 -0.11956,0.0809 -0.1928,0.1374 -0.39822,0.30532 -0.59789,0.4576 -0.0531,0.0392 -0.10137,0.0778 -0.15373,0.11706 -0.17538,0.13585 -0.34472,0.25877 -0.52385,0.40439 -0.11472,0.09 -0.23876,0.18069 -0.34924,0.27031 -0.13173,0.10691 -0.27081,0.23441 -0.40618,0.34906 -0.076,0.0622 -0.15835,0.12051 -0.23345,0.18304 -0.0945,0.0787 -0.18213,0.15927 -0.27521,0.23838 -0.25913,0.21976 -0.51367,0.44225 -0.76301,0.66619 -0.1119,0.1008 -0.22059,0.20282 -0.33025,0.30437 -0.30524,0.28138 -0.60557,0.56536 -0.89588,0.85348 -0.008,0.008 -0.0154,0.016 -0.0227,0.0234 -0.011,0.011 -0.0194,0.0209 -0.0303,0.0319 -0.37337,0.37227 -0.73489,0.75065 -1.08377,1.13444 -0.0433,0.0466 -0.088,0.0916 -0.13097,0.13834 -0.0742,0.0809 -0.16276,0.16852 -0.23535,0.24903 -0.005,0.005 -0.0118,0.0133 -0.0171,0.0191 l -0.002,0.002 c -0.0631,0.07 -0.11465,0.13874 -0.17652,0.20858 -0.0151,0.017 -0.0287,0.0341 -0.0436,0.0511 -0.28091,0.32016 -0.55456,0.64435 -0.81804,0.97055 -0.0592,0.0735 -0.12604,0.14758 -0.18412,0.22136 -0.0138,0.0175 -0.0318,0.0357 -0.0456,0.0532 -0.07,0.0895 -0.13266,0.18658 -0.20119,0.27668 -0.49163,0.63856 -0.94901,1.28504 -1.37418,1.94536 -0.0254,0.0402 -0.0526,0.0809 -0.0778,0.12132 -0.58987,0.92687 -1.12215,1.87413 -1.57915,2.84141 -0.0648,0.13717 -0.28687,0.74346 -0.40618,1.04079 -0.0537,0.12703 -0.10673,0.23907 -0.16133,0.37246 -0.002,0.005 -0.003,0.01 -0.006,0.0149 -0.10704,0.26179 -0.24077,0.64768 -0.35303,0.93862 -0.15687,0.37511 -0.29693,0.73425 -0.41377,1.06633 -0.0111,0.0316 -0.0393,0.12044 -0.055,0.16815 -0.0411,0.0916 -0.0803,0.16907 -0.12148,0.26178 -0.37293,0.83954 -0.73023,1.61236 -1.09326,2.40935 -0.9226,2.01551 -1.95246,4.17929 -2.92105,6.17448 -1.93337,3.91158 -3.68294,7.07711 -5.23664,9.47776 -1.29341,1.87822 -2.62954,3.56802 -3.58537,4.51859 -0.39535,0.35523 -0.73246,0.59001 -1.01164,0.63001 -0.0286,0.004 -0.0539,-10e-4 -0.0816,0 -0.14147,0.002 -0.2723,-0.0373 -0.39288,-0.13834 -0.2404,-0.36715 -0.52284,-1.0078 -0.73644,-1.71976 -0.0705,-0.23507 -0.14701,-0.56518 -0.22206,-0.89604 -0.10381,-0.50761 -0.20789,-1.0694 -0.31888,-1.73891 -9.7e-4,-0.007 -0.003,-0.0166 -0.004,-0.0234 -1.05841,-6.54625 -2.38794,-19.78456 -3.23233,-31.73442 -0.0748,-1.0893 -0.15273,-2.17551 -0.22207,-3.26284 -0.1299,-2.02615 -0.24876,-4.0127 -0.33975,-5.86374 -0.005,-0.0962 -0.0113,-0.19271 -0.0171,-0.28945 -0.0717,-1.50984 -0.12773,-2.93769 -0.17082,-4.28447 -0.0268,-0.86709 -0.0527,-1.72014 -0.0645,-2.49661 l -0.0759,-4.92085 7.50668,-15.66076 4.58751,-9.53735 c 3.6602,-7.61169 7.73096,-16.18218 11.78482,-24.76604 0.89188,-1.875 1.71111,-3.581483 2.6781,-5.623231 1.30507,-2.745621 2.7146,-5.680911 3.94978,-8.290108 0.007,-0.01537 0.0155,-0.0337 0.0227,-0.04895 6.57803,-13.550305 11.60686,-24.343626 14.07382,-30.278594 0.0641,-0.151129 0.23207,-0.519131 0.28091,-0.638519 0.18958,-0.463434 0.30205,-0.777159 0.44983,-1.157849 0.0254,-0.06475 0.0496,-0.124288 0.074,-0.187299 0.15277,-0.398238 0.30048,-0.79425 0.40618,-1.104639 0.43971,-1.23065 0.63885,-1.99964 0.50487,-2.124141 l 0,-0.0021 c -0.0401,-0.03726 -0.0996,-0.0564 -0.17082,-0.05959 z M 287.66464,262.37672 c 0.078,0.0134 0.15015,0.0737 0.21828,0.15537 0.34879,0.73193 0.48024,3.34021 0.58649,8.28799 9.7e-4,0.0796 9.3e-4,0.18976 0.002,0.27029 0.0366,5.0433 -0.003,11.93502 -0.0816,19.20454 -0.0231,1.59365 -0.036,3.04497 -0.0645,4.69312 -0.0362,2.00961 -0.0761,3.91296 -0.11578,5.79138 -0.0396,1.9287 -0.0826,3.7662 -0.12717,5.63387 -0.24534,9.82059 -0.55759,17.82187 -0.98128,24.60215 -0.69934,10.07505 -1.76857,19.10474 -3.08428,26.44747 -1.10833,5.85229 -2.67729,11.67331 -4.05797,15.20954 -0.017,0.0388 -0.0342,0.0808 -0.0512,0.11919 -0.18773,0.43577 -0.37665,0.8279 -0.56561,1.20254 -0.67278,1.26075 -1.36316,2.1461 -2.06315,2.59664 -0.77839,0.50101 -2.12235,0.68266 -6.12301,0.83008 l -0.46881,0.006 c -3.37217,0.0458 -5.79129,0.0303 -7.52755,-0.17028 -1.37486,-0.19657 -2.29706,-0.51251 -2.85842,-0.98119 -0.79161,-0.6609 -0.91836,-1.06195 -1.01165,-3.17769 -0.0569,-1.28968 0.0939,-3.39833 0.41757,-6.12127 4.6e-4,-0.004 9.7e-4,-0.007 0.002,-0.0106 1.3409,-10.31715 4.40564,-26.40421 7.75152,-41.04615 1.75796,-7.5524 3.63381,-14.93131 5.48528,-21.46915 4.19797,-14.57787 10.57454,-33.70414 13.28994,-39.94153 0.40857,-0.90465 0.73196,-1.53299 0.99836,-1.88789 0.16367,-0.18094 0.30528,-0.26626 0.43085,-0.24476 z m -1.46527,75.21545 c 9.8e-4,0.1205 9.3e-4,0.24116 0.002,0.36184 l 0.002,-0.002 c 0.0142,-0.0982 -0.0122,-0.20347 0.002,-0.30223 3.4e-4,-0.0195 -9.2e-4,-0.038 -0.002,-0.0575 -9.7e-4,-6.8e-4 -0.003,7e-4 -0.004,0 z m -1.68923,14.03679 -0.002,0.002 c -0.003,0.0127 -3.3e-4,0.0253 -0.004,0.0383 9.6e-4,-0.002 8.6e-4,-0.002 0.002,-0.004 9.7e-4,-0.0119 0.009,-0.0254 0.004,-0.0362 z m -0.0436,0.0873 c -0.013,0.005 7.1e-4,0.0287 0.002,0.0447 0.003,-0.005 0.004,-0.0149 0.008,-0.0213 -9.1e-4,-0.0136 -0.002,-0.027 -0.01,-0.0234 z m -9.56602,36.17851 14.05294,0 0.26952,0 c 7.28081,0.003 13.13112,0.0978 13.66575,0.2171 l 0,1.16423 -0.25623,3.70767 c -0.28401,4.12387 -0.57128,7.28587 -0.85601,9.88003 -0.42145,3.47316 -0.83959,5.76749 -1.20334,6.17661 -0.24519,0.27577 -1.30598,0.46132 -3.62143,0.62787 -0.91648,0.0569 -1.84895,0.11398 -2.99128,0.17028 -1.78709,0.0364 -4.35834,0.12853 -6.87274,0.22134 -0.28711,0.007 -0.49228,0.017 -0.78197,0.0234 l -2.2093,0.049 -9.19591,0.009 0,-9.78636 0,-0.22136 0,-12.23829 z m 57.6334,0.0128 9.61726,0.0958 0,13.43658 0,8.21774 -0.006,0.43207 -13.13051,0.0106 c -0.37448,-0.004 -0.72543,-0.01 -1.09895,-0.0149 -2.40705,-0.0497 -4.66833,-0.0958 -6.77214,-0.14047 l -2.40478,-0.0511 c -0.34742,-0.0124 -1.04746,-0.024 -1.30585,-0.0362 l -4.25725,-0.20007 c -0.0464,-0.0532 -0.0891,-0.12018 -0.12907,-0.19581 l 0,-10.28017 c 0,-5.50756 0.10876,-10.06391 0.24674,-10.60368 0.0475,-0.0422 0.11317,-0.081 0.20878,-0.11706 0.41401,-0.0866 2.19985,-0.1982 4.7052,-0.315 2.60434,-0.0777 5.95115,-0.14609 9.69889,-0.18729 l 4.62737,-0.0511 z m -104.18805,0.74281 0.93381,0 c 0.0194,0.005 0.0387,0.01 0.0589,0.0149 l -0.33594,5.48701 c -0.18359,2.99655 -0.45534,7.02123 -0.64723,9.70124 -0.22074,2.79969 -0.42997,5.08467 -0.52385,5.25502 -0.10233,0.18567 -0.87694,0.42407 -1.88094,0.60447 l -1.57346,0.16388 c -0.51791,0.0537 -1.13839,0.097 -1.79173,0.13622 -3.05894,0.12525 -7.79269,0.14335 -11.54945,0.066 -0.30244,-0.006 -0.66239,-0.005 -0.94902,-0.0128 -0.70252,-0.0186 -1.33642,-0.0415 -1.9113,-0.0681 -0.69927,-0.0426 -1.35495,-0.0908 -1.87905,-0.15111 -0.40478,-0.0466 -0.74756,-0.0872 -1.06668,-0.13408 -2.03348,-0.39565 -2.33705,-1.34907 -2.66862,-5.56151 -0.0758,-0.963 -0.15399,-2.43098 -0.22397,-3.94605 -0.0187,-0.45005 -0.037,-0.93268 -0.057,-1.42816 -0.0426,-1.06795 -0.0745,-2.10397 -0.10059,-3.11172 l -0.0835,-5.4487 0,-1.20467 c 0.13622,-0.0712 0.3365,-0.13306 0.71745,-0.17878 l 12.97297,-0.0937 12.5592,-0.0894 z m 11.64814,0 12.19669,0 12.09798,0 0,0.93437 -0.0361,0.94075 -0.0627,1.36005 c -0.47402,5.49767 -0.80508,8.95191 -1.09515,11.55508 -0.24429,1.97478 -0.4846,3.73137 -0.66052,4.60159 -0.19343,0.59285 -0.44061,0.98596 -0.80666,1.24511 -0.0961,0.0568 -0.19466,0.11145 -0.29988,0.1575 -0.47957,0.10717 -1.28273,0.20646 -2.2985,0.30224 -2.01886,0.1145 -5.42443,0.24391 -9.16554,0.33628 l -2.89069,0.0724 c -2.17509,-0.002 -4.37902,-0.005 -6.97903,-0.004 l 0,-10.66328 0,-0.006 0,-10.83142 z m -49.73383,0.0936 0.69847,0 0.6738,0.10217 c 0.033,0.10854 0.0615,0.26448 0.0873,0.45334 0.003,0.0235 0.005,0.0455 0.008,0.0702 l 0,4.42707 c -0.002,0.46762 -0.0234,1.10553 -0.0323,1.64525 l -0.006,0.26605 c -0.113,2.10752 -0.19458,4.43452 -0.22206,6.45756 -0.0236,0.4468 -0.0394,1.02709 -0.0645,1.41113 -0.27017,4.14281 -0.4268,5.02 -1.01163,5.67644 -0.65339,0.73338 -1.10562,0.77791 -8.18997,0.81943 -1.70632,0.01 -3.15092,-0.007 -4.61978,-0.0213 -0.9742,-0.0312 -1.8555,-0.0621 -3.20006,-0.0936 -1.00615,-0.0446 -1.95152,-0.0745 -2.98559,-0.12984 l -3.24182,-0.1724 c -0.87681,-0.10209 -1.5374,-0.21761 -1.87145,-0.35331 0,0 -0.002,-0.002 -0.002,-0.002 -0.12277,-0.0778 -0.21354,-0.17352 -0.2961,-0.27882 -0.35158,-1.04973 -0.5986,-10.53666 -0.52954,-15.95447 0.0586,-1.91802 0.15325,-3.35425 0.29609,-3.73747 0.28824,-0.11288 2.77801,-0.24976 6.23499,-0.37034 l 6.68673,-0.0787 0.0797,0 11.5077,-0.13622 z m -10.36889,23.03566 c 0.18348,0.003 0.35459,0.0312 0.46881,0.083 0.0801,0.0363 0.0806,0.0661 0.0474,0.0936 -0.22324,0.0156 -0.43479,0.0337 -0.77629,0.0319 -0.16161,-8.8e-4 -0.27133,-0.008 -0.40427,-0.0128 -9.7e-4,-4e-5 -0.003,4e-5 -0.004,0 0,0 0,-0.002 0,-0.002 -0.0712,-0.034 -0.0385,-0.0783 0.12337,-0.12558 0.16416,-0.0479 0.36126,-0.0707 0.54474,-0.0681 z m -8.0571,0.002 c 0.1529,0 0.30537,0.0263 0.42137,0.0788 0.10201,0.0462 0.1093,0.0861 0.0607,0.11918 -0.17735,0.0127 -0.39082,0.0213 -0.64533,0.0213 -0.15107,0 -0.19808,-0.0165 -0.32076,-0.0213 -0.0486,-0.0331 -0.0413,-0.073 0.0607,-0.11918 0.11599,-0.0525 0.27036,-0.0788 0.42325,-0.0788 z m 16.96261,34.09907 0,25.68125 8.67206,20.56033 8.83149,0 8.75178,-20.56033 0,-25.68125 -26.25533,0 z m 102.2312,0.39588 0,25.67912 8.75177,20.56033 8.83339,0 8.74988,-20.56033 0,-25.67912 -26.33504,0 z m -51.8767,0.48954 0,25.68124 8.67015,20.56033 8.91311,0 8.67016,-20.56033 0,-25.68124 -26.25342,0 z"/>
  </g>
</svg>
